<mxfile host="app.diagrams.net" modified="2023-11-19T19:28:00.643Z" agent="Mozilla/5.0 (Windows NT 10.0; Win64; x64) AppleWebKit/537.36 (KHTML, like Gecko) Chrome/119.0.0.0 Safari/537.36" etag="yDH2Tc4mgEjAa_IlsfzE" version="22.1.3" type="github">
  <diagram name="Página-1" id="MWoHv4iHi_J7T83OdjMT">
    <mxGraphModel dx="880" dy="478" grid="1" gridSize="10" guides="1" tooltips="1" connect="1" arrows="1" fold="1" page="1" pageScale="1" pageWidth="827" pageHeight="1169" math="0" shadow="0">
      <root>
        <mxCell id="0" />
        <mxCell id="1" parent="0" />
        <mxCell id="g31Ij9B4PCqxZjl6AXJR-1" value="HOME" style="rounded=1;whiteSpace=wrap;html=1;fillColor=#dae8fc;strokeColor=#6c8ebf;" vertex="1" parent="1">
          <mxGeometry y="210" width="80" height="40" as="geometry" />
        </mxCell>
        <mxCell id="g31Ij9B4PCqxZjl6AXJR-33" style="edgeStyle=orthogonalEdgeStyle;rounded=0;orthogonalLoop=1;jettySize=auto;html=1;entryX=1;entryY=0.25;entryDx=0;entryDy=0;" edge="1" parent="1" source="g31Ij9B4PCqxZjl6AXJR-2" target="g31Ij9B4PCqxZjl6AXJR-1">
          <mxGeometry relative="1" as="geometry" />
        </mxCell>
        <mxCell id="g31Ij9B4PCqxZjl6AXJR-2" value="LOGIN" style="rounded=1;whiteSpace=wrap;html=1;fillColor=#dae8fc;strokeColor=#6c8ebf;" vertex="1" parent="1">
          <mxGeometry x="70" y="150" width="100" height="30" as="geometry" />
        </mxCell>
        <mxCell id="g31Ij9B4PCqxZjl6AXJR-34" style="edgeStyle=orthogonalEdgeStyle;rounded=0;orthogonalLoop=1;jettySize=auto;html=1;entryX=1;entryY=0.75;entryDx=0;entryDy=0;" edge="1" parent="1" source="g31Ij9B4PCqxZjl6AXJR-3" target="g31Ij9B4PCqxZjl6AXJR-1">
          <mxGeometry relative="1" as="geometry" />
        </mxCell>
        <mxCell id="g31Ij9B4PCqxZjl6AXJR-3" value="CADASTRO" style="rounded=1;whiteSpace=wrap;html=1;fillColor=#dae8fc;strokeColor=#6c8ebf;" vertex="1" parent="1">
          <mxGeometry x="70" y="280" width="100" height="30" as="geometry" />
        </mxCell>
        <mxCell id="g31Ij9B4PCqxZjl6AXJR-16" value="CLIENTE" style="rounded=1;whiteSpace=wrap;html=1;fillColor=#dae8fc;strokeColor=#6c8ebf;" vertex="1" parent="1">
          <mxGeometry x="250" y="80" width="100" height="30" as="geometry" />
        </mxCell>
        <mxCell id="g31Ij9B4PCqxZjl6AXJR-18" value="ADM" style="rounded=1;whiteSpace=wrap;html=1;fillColor=#dae8fc;strokeColor=#6c8ebf;" vertex="1" parent="1">
          <mxGeometry x="280" y="260" width="100" height="30" as="geometry" />
        </mxCell>
        <mxCell id="g31Ij9B4PCqxZjl6AXJR-24" style="edgeStyle=orthogonalEdgeStyle;rounded=0;orthogonalLoop=1;jettySize=auto;html=1;entryX=1;entryY=0.5;entryDx=0;entryDy=0;" edge="1" parent="1" source="g31Ij9B4PCqxZjl6AXJR-19" target="g31Ij9B4PCqxZjl6AXJR-18">
          <mxGeometry relative="1" as="geometry" />
        </mxCell>
        <mxCell id="g31Ij9B4PCqxZjl6AXJR-19" value="CADASTRO PRODUTO" style="rounded=1;whiteSpace=wrap;html=1;fillColor=#dae8fc;strokeColor=#6c8ebf;" vertex="1" parent="1">
          <mxGeometry x="370" y="320" width="100" height="30" as="geometry" />
        </mxCell>
        <mxCell id="g31Ij9B4PCqxZjl6AXJR-23" style="edgeStyle=orthogonalEdgeStyle;rounded=0;orthogonalLoop=1;jettySize=auto;html=1;exitX=0;exitY=0.5;exitDx=0;exitDy=0;entryX=0.41;entryY=0.1;entryDx=0;entryDy=0;entryPerimeter=0;" edge="1" parent="1" source="g31Ij9B4PCqxZjl6AXJR-16" target="g31Ij9B4PCqxZjl6AXJR-18">
          <mxGeometry relative="1" as="geometry" />
        </mxCell>
        <mxCell id="g31Ij9B4PCqxZjl6AXJR-26" style="edgeStyle=orthogonalEdgeStyle;rounded=0;orthogonalLoop=1;jettySize=auto;html=1;entryX=0;entryY=0.5;entryDx=0;entryDy=0;" edge="1" parent="1" source="g31Ij9B4PCqxZjl6AXJR-25" target="g31Ij9B4PCqxZjl6AXJR-18">
          <mxGeometry relative="1" as="geometry" />
        </mxCell>
        <mxCell id="g31Ij9B4PCqxZjl6AXJR-25" value="VISU" style="rounded=1;whiteSpace=wrap;html=1;fillColor=#dae8fc;strokeColor=#6c8ebf;" vertex="1" parent="1">
          <mxGeometry x="270" y="400" width="100" height="30" as="geometry" />
        </mxCell>
        <mxCell id="g31Ij9B4PCqxZjl6AXJR-29" style="edgeStyle=orthogonalEdgeStyle;rounded=0;orthogonalLoop=1;jettySize=auto;html=1;entryX=0;entryY=0.25;entryDx=0;entryDy=0;" edge="1" parent="1" source="g31Ij9B4PCqxZjl6AXJR-27" target="g31Ij9B4PCqxZjl6AXJR-28">
          <mxGeometry relative="1" as="geometry" />
        </mxCell>
        <mxCell id="g31Ij9B4PCqxZjl6AXJR-27" value="VISU" style="rounded=1;whiteSpace=wrap;html=1;fillColor=#dae8fc;strokeColor=#6c8ebf;" vertex="1" parent="1">
          <mxGeometry x="450" y="130" width="100" height="30" as="geometry" />
        </mxCell>
        <mxCell id="g31Ij9B4PCqxZjl6AXJR-28" value="COMPRA" style="rounded=1;whiteSpace=wrap;html=1;fillColor=#dae8fc;strokeColor=#6c8ebf;" vertex="1" parent="1">
          <mxGeometry x="450" y="40" width="80" height="30" as="geometry" />
        </mxCell>
        <mxCell id="g31Ij9B4PCqxZjl6AXJR-31" style="edgeStyle=orthogonalEdgeStyle;rounded=0;orthogonalLoop=1;jettySize=auto;html=1;entryX=0.75;entryY=0;entryDx=0;entryDy=0;" edge="1" parent="1" source="g31Ij9B4PCqxZjl6AXJR-30" target="g31Ij9B4PCqxZjl6AXJR-18">
          <mxGeometry relative="1" as="geometry" />
        </mxCell>
        <mxCell id="g31Ij9B4PCqxZjl6AXJR-30" value="CADASTRO DE FUNCIONARIO" style="rounded=1;whiteSpace=wrap;html=1;fillColor=#dae8fc;strokeColor=#6c8ebf;" vertex="1" parent="1">
          <mxGeometry x="440" y="220" width="100" height="30" as="geometry" />
        </mxCell>
        <mxCell id="g31Ij9B4PCqxZjl6AXJR-35" value="1 INICIO&lt;br&gt;2 PRODUTOS&lt;br&gt;3CARRINHO&lt;br&gt;3LOGIN&lt;br&gt;5 HISTORICO&lt;br&gt;6 FINALIZAÇÃO DE COMPRA&lt;br&gt;7 SUPORTE" style="rounded=1;whiteSpace=wrap;html=1;fillColor=#dae8fc;strokeColor=#6c8ebf;" vertex="1" parent="1">
          <mxGeometry x="600" y="70" width="170" height="130" as="geometry" />
        </mxCell>
        <mxCell id="g31Ij9B4PCqxZjl6AXJR-36" style="edgeStyle=orthogonalEdgeStyle;rounded=0;orthogonalLoop=1;jettySize=auto;html=1;entryX=0;entryY=0.863;entryDx=0;entryDy=0;entryPerimeter=0;" edge="1" parent="1" source="g31Ij9B4PCqxZjl6AXJR-27" target="g31Ij9B4PCqxZjl6AXJR-35">
          <mxGeometry relative="1" as="geometry" />
        </mxCell>
        <mxCell id="g31Ij9B4PCqxZjl6AXJR-40" style="edgeStyle=orthogonalEdgeStyle;rounded=0;orthogonalLoop=1;jettySize=auto;html=1;entryX=1;entryY=0.5;entryDx=0;entryDy=0;" edge="1" parent="1" source="g31Ij9B4PCqxZjl6AXJR-37" target="g31Ij9B4PCqxZjl6AXJR-25">
          <mxGeometry relative="1" as="geometry" />
        </mxCell>
        <mxCell id="g31Ij9B4PCqxZjl6AXJR-37" value="1 INICIO&lt;br&gt;2 CADASTRO PRODUTO&lt;br&gt;3 FINAL CADS PROD&lt;br&gt;4 CADS FUNCIONARIO&lt;br&gt;5 CADS CLIENTE&lt;br&gt;6 COMPRAS&lt;br&gt;7 HIST DE COMPRAS&lt;br&gt;8 ESTOQUE&lt;br&gt;9 LISTA DE CLIENTES&lt;br&gt;10 CARRINHO" style="rounded=1;whiteSpace=wrap;html=1;fillColor=#dae8fc;strokeColor=#6c8ebf;" vertex="1" parent="1">
          <mxGeometry x="560" y="280" width="170" height="170" as="geometry" />
        </mxCell>
      </root>
    </mxGraphModel>
  </diagram>
</mxfile>
